<?xml version="1.0" encoding="UTF-8" standalone="no"?>
<!-- Created with Inkscape (http://www.inkscape.org/) -->

<svg
   width="210mm"
   height="297mm"
   viewBox="0 0 210 297"
   version="1.1"
   id="svg5"
   inkscape:version="1.1.2 (b8e25be8, 2022-02-05)"
   sodipodi:docname="monoflower1.svg"
   xmlns:inkscape="http://www.inkscape.org/namespaces/inkscape"
   xmlns:sodipodi="http://sodipodi.sourceforge.net/DTD/sodipodi-0.dtd"
   xmlns="http://www.w3.org/2000/svg"
   xmlns:svg="http://www.w3.org/2000/svg">
  <sodipodi:namedview
     id="namedview7"
     pagecolor="#ffffff"
     bordercolor="#666666"
     borderopacity="1.0"
     inkscape:pageshadow="2"
     inkscape:pageopacity="0.0"
     inkscape:pagecheckerboard="0"
     inkscape:document-units="mm"
     showgrid="false"
     inkscape:zoom="0.34497217"
     inkscape:cx="202.91492"
     inkscape:cy="607.29537"
     inkscape:window-width="1148"
     inkscape:window-height="639"
     inkscape:window-x="0"
     inkscape:window-y="25"
     inkscape:window-maximized="0"
     inkscape:current-layer="layer1" />
  <defs
     id="defs2" />
  <g
     inkscape:label="Layer 1"
     inkscape:groupmode="layer"
     id="layer1">
    <path
       style="fill:#93ac9d;stroke-width:0.264583"
       d="m 47.084166,181.28483 c -0.408673,-0.38382 -1.022475,-0.20937 -1.517585,-0.38039 -1.526138,-0.34934 -2.950301,-1.09752 -4.527466,-1.22892 -0.535171,-0.0215 -1.127817,0.0642 -1.575029,-0.30712 -0.929313,-0.71349 -1.691056,-1.61655 -2.511347,-2.44761 -2.108234,-2.24066 -4.054983,-4.75655 -5.005686,-7.72248 -0.91047,-2.77318 -0.942349,-5.7348 -0.833195,-8.62242 0.01491,-0.73897 0.233379,-1.54937 0.892468,-1.97103 0.492176,-0.30855 1.189492,-0.54189 1.725412,-0.2125 0.293949,0.48191 0.900481,0.34352 1.363448,0.49922 1.730975,0.52927 3.379027,1.30356 4.972463,2.15601 1.173794,0.67387 2.314945,1.40521 3.506268,2.04861 1.261086,0.88718 2.319262,2.02555 3.382719,3.13312 1.758663,1.89507 3.466744,3.90968 4.506204,6.30298 0.935703,2.09407 1.210065,4.40977 1.280575,6.681 0.03751,0.52904 -0.194869,1.02905 -0.564695,1.39719 -0.324782,0.44942 -0.836748,0.73057 -1.391495,0.75842 -1.122097,0.0952 -2.260267,0.18248 -3.381719,0.0408 -0.110739,-0.0257 -0.238078,-0.0368 -0.32134,-0.12483 z m 44.412662,-1.35297 c -0.880181,-0.34564 -1.571686,-1.02963 -2.266926,-1.64936 -1.254508,-1.21147 -2.461983,-2.50979 -3.336738,-4.02851 -1.228753,-2.29816 -2.086266,-4.7701 -2.945155,-7.22358 -0.491257,-1.37069 -0.926509,-2.77571 -1.040502,-4.23527 -0.106527,-1.37073 -0.115372,-2.81376 0.43324,-4.10017 0.192517,-0.46889 0.598937,-0.85253 1.11596,-0.91348 0.629661,-0.14294 1.40954,-0.004 1.757501,0.59539 1.158003,1.43794 2.558782,2.67899 3.551035,4.24871 1.35575,2.03667 2.200172,4.35144 2.971053,6.65773 0.331053,0.94773 0.694689,1.88407 1.119135,2.79371 0.6502,1.68811 1.228315,3.40854 1.668497,5.16378 0.181171,0.63515 -0.298213,1.19671 -0.637617,1.68163 -0.412681,0.34313 -0.174156,1.14613 -0.766107,1.24912 -0.548841,0.0636 -1.098278,-0.0979 -1.623376,-0.2397 z M 140.656,148.12146 c -0.61304,-0.59654 -0.73302,-1.59073 -0.2972,-2.32327 0.42036,-1.02197 0.30617,-2.16124 0.61115,-3.21346 0.53439,-2.2871 1.5341,-4.42919 2.55043,-6.53479 0.37539,-0.71124 0.70202,-1.46549 1.2171,-2.08881 0.45537,-0.22751 0.624,-0.77679 0.85704,-1.19998 1.11006,-2.1619 2.83357,-3.94465 4.68514,-5.48873 1.79042,-1.44611 3.75174,-2.68435 5.82203,-3.68932 3.50659,-1.69578 7.40588,-2.3229 11.25024,-2.68188 2.45009,-0.25003 4.91423,-0.30402 7.3674,-0.51002 0.44699,-0.062 0.92845,-0.0487 1.34472,-0.21942 0.17356,-0.46937 0.78892,-0.53853 1.22385,-0.61499 0.62809,-0.11494 1.34042,0.23649 1.48994,0.88847 0.2359,1.02466 -0.14965,2.05904 -0.46812,3.02237 -0.59035,1.62191 -1.23937,3.23722 -2.13524,4.71736 -0.22977,0.43673 -0.75112,0.55331 -0.97019,1.01015 -0.7663,1.11214 -1.31864,2.35299 -2.04654,3.48977 -2.10184,3.41656 -4.63443,6.61531 -7.76129,9.15147 -2.319,1.84568 -5.02164,3.17715 -7.83284,4.09033 -1.28525,0.40849 -2.61948,0.69392 -3.9724,0.7045 -1.72118,0.17552 -3.39944,0.61838 -5.10418,0.89923 -2.31988,0.41532 -4.63667,0.85463 -6.96825,1.19958 -0.34909,-0.0356 -0.6162,-0.38603 -0.86279,-0.60856 z m -35.8753,-46.23518 c -0.50907,-0.4541 -0.97778,-0.97896 -1.22536,-1.62282 -0.83869,-1.456277 -2.00863,-2.695364 -2.77803,-4.19583 -1.662741,-3.014217 -2.199874,-6.484766 -2.378335,-9.881189 -0.111858,-2.387331 -0.09554,-4.854091 0.744843,-7.122963 0.467861,-1.226016 1.256192,-2.374821 2.375742,-3.086425 1.00065,-0.461776 2.15528,-0.477823 3.22979,-0.328556 0.53337,0.09946 1.19867,0.249108 1.39863,0.829206 0.53587,1.381401 0.80256,2.848399 1.13229,4.288327 0.79495,3.866994 1.62911,7.729557 2.22908,11.632975 0.32201,2.166118 0.49942,4.365505 0.36531,6.55454 -0.0845,1.045278 -0.77945,1.890015 -1.36521,2.709905 -0.33818,0.394 -0.65529,0.91145 -1.21908,0.98074 -0.90239,0.22043 -1.84115,-0.15227 -2.50967,-0.75791 z"
       id="path1080"
       inkscape:export-filename="/Users/ksergi/Desktop/monoflower1.png"
       inkscape:export-xdpi="96"
       inkscape:export-ydpi="96" />
    <path
       style="fill:#aa87de;stroke-width:0.264583"
       d="m 62.883281,133.77153 c -1.265593,-0.35801 -2.612196,-0.80903 -3.478306,-1.85496 -0.932695,-1.16353 -0.626911,-2.99499 0.465109,-3.95006 1.156668,-1.03753 2.703701,-1.46696 4.189687,-1.78239 1.800564,-0.28633 3.645841,-0.18682 5.440788,0.0944 0.863561,0.12053 1.681938,0.42077 2.497592,0.71452 0.199747,0.0745 0.848108,0.29315 0.472586,-0.0998 -0.780066,-1.02626 -1.668125,-1.96901 -2.378794,-3.04846 -1.536197,-2.24277 -2.861284,-4.65179 -3.70728,-7.24348 -0.851643,-2.53739 -1.619327,-5.11211 -2.122859,-7.74324 -0.138372,-0.80592 -0.21284,-1.6797 0.103407,-2.45306 0.280257,-0.54792 1.009066,-0.60131 1.5445,-0.48435 0.819732,0.30162 1.405143,0.9978 2.033168,1.57347 0.984365,0.97803 2.010225,1.9494 2.683386,3.17984 1.270414,2.24837 2.335283,4.60468 3.474181,6.92063 0.344256,0.64099 0.575806,1.35135 1.004572,1.94182 0.240439,-0.29389 0.257975,-0.94744 0.401906,-1.37358 0.496356,-2.33187 1.070762,-4.64816 1.784195,-6.92374 0.429904,-1.48755 0.766854,-3.00136 0.996175,-4.53275 0.409978,-2.13289 1.063985,-4.30725 2.473829,-6.00616 0.415647,-0.43153 0.822696,-0.957957 1.419095,-1.133761 0.548743,-0.05131 0.918422,0.485401 1.15415,0.909141 0.5756,1.25815 0.582171,2.68062 0.574699,4.03829 -0.06431,2.0772 -0.329739,4.14847 -0.751302,6.18264 -0.751288,3.15437 -1.638386,6.27614 -2.602949,9.37156 -0.136103,0.45744 -0.317978,0.909 -0.450054,1.36172 0.422955,-0.22523 0.721172,-0.66236 1.063559,-0.99956 1.877413,-2.14824 3.876805,-4.21966 6.180875,-5.91522 0.73901,-0.52763 1.581171,-1.0652 2.528349,-0.98296 0.495402,0.0965 0.529707,0.69614 0.558782,1.10395 0.04177,1.13921 0.04062,2.32574 -0.442647,3.38439 -1.189999,2.68657 -2.633163,5.27876 -4.478266,7.57433 -1.834719,2.28984 -3.89328,4.38924 -5.991448,6.4362 -0.572079,0.50776 -1.112897,1.10817 -1.842255,1.38715 -0.738059,0.0874 -1.487652,0.11193 -2.228425,0.1964 -2.403116,0.24744 -4.808968,0.5066 -7.227463,0.52744 -1.754573,0.006 -3.532865,0.0231 -5.256573,-0.34816 l -0.08597,-0.0223 z m 53.835339,-11.33618 c -0.66801,-0.8826 -1.06302,-1.93947 -1.43056,-2.9745 -0.53559,-1.52684 -0.42523,-3.17181 -0.46546,-4.76315 0.0104,-2.92267 -0.0644,-5.85622 0.25611,-8.76645 0.18716,-1.65298 0.65871,-3.31474 1.6373,-4.68032 0.36184,-0.56229 1.28424,-0.44294 1.54859,0.15099 0.50298,0.96738 0.64117,2.07094 0.86181,3.12635 0.27729,1.42142 0.42783,2.87475 0.85326,4.26278 0.39045,0.0385 0.82619,-0.46642 1.2183,-0.67942 2.96796,-2.10075 5.83574,-4.33769 8.73354,-6.53273 1.41693,-1.0121 2.93174,-2.080645 4.71615,-2.253769 0.79682,-0.06068 1.59382,0.03651 2.39035,0.0639 -0.0299,0.854295 0.0572,1.753705 -0.36734,2.534565 -0.81309,1.63046 -2.15411,2.90269 -3.39666,4.20359 -0.99841,0.97945 -1.97986,1.99359 -3.11984,2.81063 -0.42035,0.15065 -0.81598,0.3702 -1.16066,0.66448 -0.89489,0.78484 -1.8597,1.49675 -2.92518,2.03411 -0.20717,0.17211 -0.93786,0.43857 -0.69963,0.69493 1.20968,0.25727 2.45992,0.19011 3.68917,0.23325 2.19701,0.0515 4.37976,-0.29224 6.57494,-0.28777 0.64033,0.0382 1.40229,0.0185 1.87394,0.52728 0.39591,0.52926 0.11355,1.22322 -0.24177,1.68901 -0.99619,1.34082 -2.35705,2.3618 -3.7541,3.25299 -1.50607,0.92299 -3.14937,1.59487 -4.78995,2.23712 -1.56298,0.59657 -3.17903,1.05653 -4.83173,1.32263 -1.3088,0.28893 -2.56358,0.7686 -3.79784,1.28229 -0.88263,0.30521 -1.88887,0.67614 -2.80305,0.27874 -0.2171,-0.10279 -0.40794,-0.25509 -0.56969,-0.43153 z m 6.69335,-44.539318 c -0.7969,-0.45111 -1.44132,-1.123957 -2.12642,-1.723635 -3.3443,-3.125709 -6.51679,-6.430947 -9.62047,-9.794094 -2.16658,-2.347674 -4.24773,-4.782652 -6.06857,-7.411337 -1.96755,-2.843065 -3.74825,-5.909417 -4.5212,-9.311539 -0.23574,-1.174764 -0.5437,-2.396267 -0.22251,-3.587889 0.34828,-1.537946 0.76675,-3.205914 2.00282,-4.287326 0.86898,-0.722692 1.91686,-1.337528 3.07736,-1.35994 1.67732,-0.06014 3.45845,-0.09018 4.98387,0.718138 1.63685,0.872907 2.93526,2.233359 4.24537,3.51981 1.24524,1.26419 2.48416,2.534592 3.7267,3.801435 0.33912,-2.216944 0.94156,-4.383661 1.59837,-6.524841 0.26656,-0.97332 0.72387,-1.885257 1.33461,-2.687735 0.6312,-0.8646 1.50246,-1.606865 2.56544,-1.849991 0.60624,-0.09266 1.00131,0.482206 1.36652,0.869465 1.10681,1.293196 1.46133,3.016596 1.7687,4.64293 0.57865,3.452241 0.74518,6.953489 1.03364,10.43758 -0.0266,0.323797 0.11022,0.0416 0.20634,-0.08963 0.87459,-1.271331 1.79106,-2.521984 2.4681,-3.915053 0.53539,-1.00795 0.84818,-2.112879 1.36377,-3.130501 1.25278,-2.611451 2.61212,-5.177183 4.15501,-7.62976 1.24835,-1.892324 2.86195,-3.517048 4.56462,-5.001499 1.23066,-1.064162 2.58774,-1.993963 4.0688,-2.673382 1.0412,-0.425173 2.18933,-0.281848 3.2855,-0.301233 0.74194,0.0041 1.54235,0.07968 2.11955,0.599719 0.84694,0.687327 1.52154,1.635631 1.71975,2.723511 0.40178,2.024008 0.18405,4.116314 -0.18986,6.127296 -0.36509,1.947807 -1.04357,3.82073 -1.88406,5.610883 -0.77772,1.672301 -1.54851,3.354451 -2.48547,4.944961 -0.2768,0.321578 -0.60078,0.612781 -0.82418,0.989935 -0.43577,0.649121 -0.88575,1.2982 -1.2076,2.013041 -0.203,0.533188 -0.6037,0.970799 -0.91122,1.448556 -0.64396,0.941816 -1.40997,1.808942 -1.92695,2.83118 -0.34915,0.593894 0.41931,0.804283 0.86352,0.684879 1.65533,-0.207995 3.23281,-0.805218 4.76875,-1.432563 1.48883,-0.628989 2.89062,-1.451241 4.41548,-1.998067 2.78901,-1.075301 5.7868,-1.605519 8.7763,-1.513789 0.98611,0.02864 2.05287,0.0045 2.9055,0.579425 0.46914,0.32425 1.11297,0.400811 1.45261,0.892623 0.63693,0.968939 0.74217,2.180528 0.74963,3.311028 -0.012,2.421525 -1.04588,4.760752 -2.63985,6.55736 -2.22034,2.521867 -5.25506,4.167813 -8.36098,5.345476 -1.80789,0.699946 -3.70771,1.12158 -5.52585,1.789603 -2.67157,0.682913 -5.38443,1.190169 -8.08531,1.741364 -4.26072,0.829006 -8.52228,1.669901 -12.81676,2.306122 -1.88874,0.390554 -3.64801,1.201044 -5.45494,1.847259 -0.24397,0.143373 -0.48059,-0.04442 -0.71443,-0.109773 z"
       id="path980"
       inkscape:export-filename="/Users/ksergi/Desktop/monoflower1.png"
       inkscape:export-xdpi="96"
       inkscape:export-ydpi="96" />
    <path
       style="fill:#000000;stroke-width:0.264583"
       id="path960"
       d="" />
    <path
       style="fill:#000000;stroke-width:0.264583"
       d="m 100.53808,267.9034 c -0.52556,-0.49485 -0.30596,-1.27501 -0.24174,-1.90075 0.19929,-2.05973 0.14958,-4.13373 0.14297,-6.20041 -0.0562,-5.37502 -0.34641,-10.74328 -0.605321,-16.1112 -0.190487,-4.05259 -0.327978,-8.10733 -0.456813,-12.16223 -0.121334,-2.73373 -0.223411,-5.4756 -0.601031,-8.18857 -0.08293,-0.52228 -0.165218,-1.06259 -0.455623,-1.51349 -0.30626,-1.16177 -0.313074,-2.37698 -0.386231,-3.56972 -0.21937,-4.41283 -1.173873,-8.76964 -2.584858,-12.94889 -1.475628,-4.35729 -3.599496,-8.53376 -6.582249,-12.05778 -3.535569,-4.23789 -8.237256,-7.44867 -13.403768,-9.36103 -2.106986,-0.81846 -4.312375,-1.32748 -6.516122,-1.8054 -3.783031,-0.83427 -7.612184,-1.46017 -11.366245,-2.42389 -0.640855,-0.16308 -1.282868,-0.35222 -1.944133,-0.4074 -0.844899,0.0932 -1.701673,0.003 -2.550449,-0.007 -2.074701,-0.10438 -4.162072,-0.14354 -6.216348,-0.47786 -1.797505,-0.34123 -3.503049,-1.06683 -5.108988,-1.92839 -3.227949,-1.75479 -5.888413,-4.51518 -7.534817,-7.79871 -1.173222,-2.3003 -1.881376,-4.81902 -2.19876,-7.37716 -0.301749,-2.30722 -0.557962,-4.63001 -0.550885,-6.95968 -0.0157,-0.76633 0.190374,-1.62077 0.865254,-2.07187 0.41102,-0.2544 0.827505,-0.62894 1.33826,-0.60714 0.492729,0.13231 0.918704,0.44233 1.411815,0.58433 1.617177,0.60887 3.308847,1.00344 4.894922,1.69807 2.980206,1.2524 5.850203,2.86179 8.227544,5.07597 2.322585,2.14205 4.410912,4.57732 5.96443,7.33808 1.014188,1.83945 1.490088,3.92268 1.7513,5.99161 0.168128,1.34254 0.09819,2.69689 0.113026,4.0459 1.276124,0.39945 2.552991,0.80076 3.864649,1.07023 5.090083,1.17242 10.30119,1.86161 15.279488,3.487 2.886247,0.96807 5.649072,2.30558 8.216359,3.94002 2.953185,1.9126 5.546912,4.35265 7.77556,7.06709 2.528762,3.11942 4.288211,6.75822 5.944993,10.3903 0.224394,0.34986 0.06508,-0.43837 0.06824,-0.57827 -0.30764,-3.31873 -0.498845,-6.64734 -0.830558,-9.96411 -0.37593,-3.91212 -0.738262,-7.82679 -1.226095,-11.72687 0.02794,-0.57225 -0.445569,-0.94288 -0.88982,-1.20495 -1.940226,-1.21465 -4.164397,-1.93604 -6.002319,-3.31971 -1.192558,-0.97789 -2.229645,-2.14201 -3.127997,-3.39345 -1.862639,-2.63961 -2.81076,-5.79726 -3.42359,-8.93563 -0.530071,-2.89742 -0.79381,-5.8739 -0.46006,-8.81049 0.172691,-1.30296 0.450664,-2.67489 1.302332,-3.71901 0.375493,-0.41809 1.058224,-0.4276 1.541741,-0.2189 0.322387,0.35139 0.242123,0.95866 0.724752,1.22188 0.505166,0.36731 1.087862,0.62222 1.565718,1.03271 1.90122,1.53083 3.385145,3.51851 4.630426,5.60207 0.404922,0.63537 0.670378,1.38205 1.218003,1.91267 0.166669,-0.33105 -0.04086,-0.9045 -0.0618,-1.32882 -0.663011,-4.25481 -1.547907,-8.47135 -2.407785,-12.68964 -1.008159,-4.7694 -2.005585,-9.54448 -3.234652,-14.26295 -0.196313,-0.72339 -0.412971,-1.44104 -0.620229,-2.16133 -0.424843,0.39663 -0.839896,0.82988 -1.41407,1.00604 -1.736776,0.64109 -3.596653,0.84634 -5.426605,1.03927 -2.355633,0.20516 -4.727559,0.28665 -7.089516,0.15429 -1.726044,-0.13398 -3.425744,-0.66412 -4.923897,-1.53016 -1.19675,-0.69559 -2.200516,-1.79163 -2.572584,-3.14676 -0.473995,-1.46955 -0.128048,-3.13915 0.837756,-4.33461 1.3415,-1.70311 3.447526,-2.57976 5.516443,-3.02077 1.509541,-0.28247 3.054646,-0.12302 4.575917,-0.0436 0.822992,0.0814 1.670362,0.0898 2.459095,0.35813 0.0017,-0.43596 -0.627488,-0.89841 -0.879912,-1.32639 -2.091746,-2.68027 -4.210259,-5.36292 -5.915239,-8.31292 -1.070009,-1.86199 -1.902139,-3.94667 -1.845786,-6.12782 0.01772,-1.26889 0.304956,-2.6929 1.368551,-3.50566 0.904816,-0.67728 2.17653,-0.67329 3.160908,-0.1705 1.718396,0.83978 3.062715,2.26685 4.255676,3.72968 1.261441,1.57402 2.292027,3.3202 3.163339,5.13615 0.167777,0.23212 0.347479,0.81553 0.597149,0.76505 0.310927,-1.61167 0.251249,-3.26711 0.463644,-4.892 0.352984,-3.04344 1.217381,-6.089912 2.921389,-8.663362 0.716382,-1.080593 1.803826,-2.007835 3.12995,-2.170236 0.582059,-0.07944 1.266667,-0.181673 1.73901,0.260485 0.892663,0.760896 1.713509,1.707758 2.026106,2.861278 0.367254,1.724819 0.260415,3.508275 0.133797,5.254045 -0.20873,2.45233 -0.655216,4.8809 -1.289008,7.25816 1.277188,-0.99545 2.551545,-2.13293 4.191466,-2.44754 1.046538,-0.19289 2.252592,0.0964 2.947078,0.94005 0.647664,0.90421 0.640097,2.07985 0.601391,3.14426 -0.195793,2.48597 -1.333868,4.77784 -2.638313,6.86043 -1.833732,2.89202 -4.15084,5.43289 -6.542772,7.86857 -0.483795,0.50034 -0.967591,1.00069 -1.451386,1.50103 1.300795,5.29595 2.634858,10.58527 3.724318,15.93009 3.368684,16.21497 5.579984,32.65029 7.167234,49.12884 0.07574,0.7634 0.151474,1.52679 0.227211,2.29019 0.03251,-6.32815 0.0329,-12.65811 0.31689,-18.98149 0.649375,-15.48966 2.21383,-30.95497 4.98623,-46.21296 1.25514,-6.86646 2.78321,-13.68784 4.74142,-20.38958 0.52438,-1.76262 1.0071,-3.54205 1.65749,-5.26346 0.35534,-0.48306 -0.27636,-0.82608 -0.63876,-1.0137 -2.00729,-0.94769 -3.44313,-2.75411 -4.54477,-4.627779 -1.33523,-2.319753 -2.23604,-4.881311 -2.74057,-7.506197 -0.37479,-2.510366 -0.40865,-5.060387 -0.33564,-7.593314 0.052,-1.646333 0.22073,-3.303035 0.74332,-4.873858 0.31444,-0.918816 0.62806,-1.890598 1.29617,-2.620161 0.50763,-0.435045 1.23878,-0.273522 1.83965,-0.184256 0.53872,0.141176 1.17979,0.156469 1.5559,0.629117 0.94679,1.095588 1.51762,2.458834 2.02261,3.800432 1.31707,3.828553 1.88311,7.859833 2.38726,11.86163 0.21988,1.739205 0.40642,3.484908 0.70767,5.212032 0.3636,-0.142816 0.54512,-0.721568 0.78171,-1.071328 0.84734,-1.599853 1.57312,-3.262009 2.4619,-4.840755 1.80624,-3.336887 3.97054,-6.458839 6.14407,-9.562702 0.84741,-1.265667 1.73879,-2.509234 2.46348,-3.850757 0.16377,-0.333174 0.32754,-0.666348 0.49131,-0.999522 -1.47094,-2.189048 -2.88032,-4.421172 -4.46236,-6.53337 -3.04177,-4.142379 -6.23273,-8.172023 -9.43619,-12.189688 -1.88178,-2.42243 -3.82016,-4.816246 -5.43207,-7.431956 -0.8926,-1.450116 -1.58532,-3.070383 -1.66361,-4.791701 -0.13565,-1.722193 0.053,-3.539898 0.96852,-5.042313 0.89316,-1.493986 2.34762,-2.590644 3.9256,-3.280022 1.18005,-0.42307 2.45843,-0.304887 3.68878,-0.326327 0.91783,-0.01099 1.84988,0.115027 2.681,0.524886 1.70589,0.73714 3.29909,1.748645 4.6254,3.056217 0.60745,0.596358 1.21289,1.194762 1.81955,1.791933 0.52188,-1.624835 1.04756,-3.266853 1.94574,-4.730887 0.84576,-1.392161 1.98045,-2.752221 3.57404,-3.281376 1.15357,-0.396861 2.46213,-0.02822 3.33861,0.79217 1.42384,1.276709 2.06025,3.163272 2.50752,4.967199 0.307,1.271272 0.43657,2.577498 0.73248,3.850922 0.36546,-0.175748 0.55183,-0.752368 0.7968,-1.112228 0.82715,-1.558488 1.56313,-3.166564 2.48725,-4.672669 1.80725,-3.024799 4.06545,-5.827572 6.87493,-7.977524 1.97437,-1.476482 4.30904,-2.655581 6.81609,-2.739351 1.75589,-0.07145 3.55401,0.594408 4.74225,1.908721 0.6838,0.745479 1.19936,1.640887 1.56136,2.581899 0.31145,1.08941 0.20037,2.238539 0.22412,3.357836 -0.0111,1.658772 0.0317,3.357935 -0.51681,4.948067 -1.0113,3.213291 -2.51902,6.247034 -4.17255,9.173107 -0.69811,1.251675 -1.52935,2.426998 -2.18079,3.70454 0.34787,0.04411 0.97282,-0.369035 1.40968,-0.518012 2.35848,-1.109926 4.77641,-2.184564 7.36769,-2.60659 2.04249,-0.347685 4.12462,-0.331928 6.18894,-0.280953 0.81856,0.008 1.59899,0.296002 2.29473,0.712717 1.37124,0.710327 2.5337,1.907205 2.9815,3.40855 0.47373,1.557315 0.37176,3.239556 4.9e-4,4.807232 -0.69025,2.672469 -2.48168,4.904727 -4.47127,6.748651 -2.29428,2.153887 -5.13405,3.632527 -8.08917,4.658658 -4.18613,1.46833 -8.56397,2.260448 -12.89504,3.165531 -4.2924,0.852799 -8.58548,1.712917 -12.90812,2.400305 -0.98853,0.169118 -2.00623,0.232821 -2.96027,0.556567 -0.57859,0.210532 -0.61274,0.909592 -0.9289,1.353338 -0.25897,0.469658 -0.72002,0.806851 -1.24507,0.910504 -0.66182,0.542438 -1.13506,1.276533 -1.64482,1.956232 -1.64938,2.432193 -3.28793,4.87209 -4.92628,7.311796 -4.26452,6.484328 -7.18745,13.750747 -9.41563,21.157287 -3.15401,10.47627 -5.12472,21.26571 -6.72864,32.07479 -1.30841,8.97821 -2.29006,18.00742 -2.80296,27.06723 -0.0304,0.331 0.0123,0.069 0.0442,-0.10603 2.20633,-12.01784 4.68485,-24.03664 8.69664,-35.60059 1.67552,-4.85154 3.66898,-9.58922 5.90835,-14.20664 0.31914,-0.67044 0.63829,-1.34087 0.95744,-2.0113 -0.21195,-2.94903 -0.53662,-5.8966 -0.45637,-8.85784 0.0735,-2.76137 0.29193,-5.55747 1.12355,-8.20652 0.49941,-1.475374 1.18101,-3.000678 2.4463,-3.976347 0.70636,-0.558438 1.74474,-0.719778 2.52807,-0.221757 1.04451,0.608663 1.54129,1.79059 1.91885,2.881546 0.26108,0.75352 0.36096,1.548788 0.36343,2.343138 0.0573,0.90694 0.19916,1.80502 0.31979,2.70488 1.4637,-1.84462 3.00793,-3.63553 4.78097,-5.192233 1.91198,-1.675103 4.03923,-3.207087 6.48702,-3.980806 1.44997,-0.447251 3.17062,-0.573441 4.4824,0.320578 0.90369,0.602233 1.23065,1.769387 1.08122,2.80348 -0.24999,1.831971 -1.27298,3.444991 -2.39534,4.870731 -1.15161,1.46239 -2.55928,2.68748 -3.97921,3.87979 -0.15519,0.13237 -0.31038,0.26474 -0.46557,0.39711 1.46701,0.0624 2.93833,0.0571 4.40089,0.19639 0.93361,0.0968 1.99617,0.3361 2.53245,1.18853 0.31407,0.52528 0.5946,1.10876 0.64473,1.72578 -0.0511,0.68296 -0.44376,1.28104 -0.73687,1.88318 -0.99726,1.64141 -2.55781,2.83757 -4.14247,3.87441 -3.0214,1.90779 -6.40577,3.23735 -9.90798,3.93807 -2.25817,0.42154 -4.57113,0.54093 -6.86349,0.42009 -0.76895,-0.0602 -1.58012,-0.10718 -2.25165,-0.52509 -0.13905,-0.0262 -0.35787,-0.2895 -0.43499,-0.13174 -1.45272,3.0625 -2.89643,6.13196 -4.11401,9.29767 -4.11599,10.53316 -6.96239,21.52369 -9.11709,32.61257 -2.49685,13.05199 -3.98681,26.30393 -4.33428,39.59004 -0.0222,0.17256 0.0112,0.76771 0.1296,0.28986 0.99335,-4.00543 1.83669,-8.05305 3.10734,-11.98438 3.26971,-10.3305 8.16941,-20.14056 14.41413,-28.99328 2.21828,-3.13627 4.60947,-6.15606 7.25978,-8.93974 2.58325,-2.73694 5.27782,-5.37674 8.18443,-7.77126 0.705,-0.60968 1.4772,-1.27183 1.6745,-2.23214 1.02502,-4.35649 2.7851,-8.53071 5.0908,-12.36209 1.35133,-2.23807 2.95615,-4.33603 4.893,-6.10092 2.7877,-2.62543 6.18601,-4.57769 9.83692,-5.72277 3.69258,-1.18697 7.57232,-1.62784 11.42999,-1.84241 2.09911,-0.16282 4.21423,-0.25992 6.28175,-0.68125 0.97448,-0.18274 1.86479,-0.62885 2.71609,-1.1193 0.45468,-0.20724 0.95493,-0.54471 1.47198,-0.38735 0.43118,0.24772 0.61959,0.80932 0.6058,1.28512 -0.0795,0.70577 -0.49876,1.32492 -0.54356,2.04076 -0.11367,0.5985 0.14601,1.2088 -0.0743,1.79483 -0.44902,1.38066 -1.17293,2.6506 -1.80973,3.94977 -1.80349,3.48345 -3.5709,7.00121 -5.74393,10.27399 -1.87434,2.82495 -4.25382,5.28793 -6.86012,7.44408 -2.9655,2.4224 -6.45421,4.3468 -10.2717,4.95571 -2.04706,0.34576 -4.1299,0.18028 -6.19319,0.14341 -2.10912,-0.0482 -4.21607,-0.22726 -6.32645,-0.18313 -0.94328,5e-5 -1.82798,0.34695 -2.70148,0.65989 -0.80283,0.27106 -1.62821,0.46968 -2.46152,0.61573 -0.88812,0.3114 -1.53801,1.03589 -2.22527,1.64677 -3.43887,3.30773 -6.77351,6.73784 -9.74883,10.47388 -5.11443,6.36736 -9.25307,13.4851 -12.55693,20.94369 -4.09648,9.38978 -6.83352,19.36339 -8.22357,29.5095 -0.53,3.81863 -0.79787,7.66805 -0.91437,11.5201 -0.0622,1.94237 -0.18836,3.88327 -0.20301,5.82667 0.0321,3.52492 0.29333,7.04177 0.50821,10.55862 0.34296,7.11504 0.41962,14.24089 0.38418,21.36328 -0.0391,2.77712 -0.0361,5.55991 -0.26599,8.32958 -0.0223,0.54603 -0.16582,1.10965 -0.58756,1.48753 -0.30288,0.3389 -0.84786,0.31544 -1.15924,6.3e-4 -0.002,-0.0483 -0.11833,-0.054 -0.11543,-0.10633 z M 48.79947,176.21206 c -4.738196,-2.84102 -8.963119,-6.61423 -12.042358,-11.22164 -0.78491,-1.13451 -1.434261,-2.35262 -2.133348,-3.53937 -0.166608,-0.1808 -0.411949,-0.80996 -0.63577,-0.67868 0.07832,1.25153 0.455722,2.46125 0.797652,3.66096 0.5514,1.7897 1.174862,3.59785 2.30456,5.11597 1.483544,2.04451 3.34983,3.8352 5.524055,5.13151 1.559768,0.8531 3.220825,1.55894 4.964932,1.9285 0.70502,0.15793 1.428724,0.14477 2.146319,0.16143 -0.308681,-0.18623 -0.617361,-0.37245 -0.926042,-0.55868 z m 44.284426,-0.55688 c -2.639107,-4.19369 -5.430174,-8.29728 -7.84726,-12.62656 -0.699208,-1.27629 -1.379914,-2.56261 -2.07018,-3.84375 0.193322,1.69369 0.411592,3.38971 0.854351,5.03957 0.733956,2.79091 1.822473,5.54033 3.584231,7.84867 1.096557,1.42302 2.593713,2.47305 4.134458,3.36478 0.439613,0.1922 0.907254,0.58242 1.401265,0.4874 0.05847,-0.0868 -0.02008,-0.1936 -0.05687,-0.27011 z M 53.56197,173.91726 c 0.03293,-2.2306 -0.673453,-4.40731 -1.743348,-6.34466 -2.168894,-3.97867 -5.551797,-7.21584 -9.411146,-9.54662 -1.866901,-1.13566 -3.883442,-2.00288 -5.954146,-2.69136 -0.591386,-0.18133 -1.177073,-0.46619 -1.80467,-0.46412 -0.459534,0.25305 0.04299,0.88041 0.122502,1.25795 2.07454,5.25531 5.275452,10.09668 9.45057,13.91856 1.489852,1.36977 3.13571,2.56331 4.889818,3.57171 1.265395,0.73002 2.529113,1.48005 3.881725,2.03883 0.619634,0.23239 0.505244,-0.72906 0.558113,-1.10264 0.008,-0.21245 0.01053,-0.42507 0.01058,-0.63765 z m 38.239152,-6.03619 c -0.869204,-3.86253 -2.335122,-7.66712 -4.817566,-10.79052 -0.749393,-0.8892 -1.534505,-1.78274 -2.5123,-2.4269 -0.641274,-0.37781 -0.186938,0.64253 -0.102407,0.92056 0.956097,2.52767 2.18673,4.94255 3.472434,7.31603 1.21942,2.19087 2.444128,4.38547 3.849194,6.46425 0.107373,0.19251 0.52466,0.71919 0.415369,0.17434 -0.0639,-0.55859 -0.182507,-1.10954 -0.304724,-1.65776 z M 153.1882,142.78696 c 3.80348,-0.74123 7.22534,-2.81619 10.09058,-5.36792 3.00119,-2.67508 5.42405,-5.94743 7.35198,-9.46368 1.17107,-2.1138 2.34096,-4.23367 3.34223,-6.43445 0.13371,-0.22493 0.26246,-0.68075 -0.13882,-0.37528 -1.31597,0.75604 -2.50119,1.71427 -3.78726,2.51832 -6.02007,3.93051 -12.19107,7.62209 -18.32295,11.37362 -3.45261,2.14538 -6.91043,4.288 -10.25382,6.60164 -0.39765,0.30764 -0.86778,0.56191 -1.15427,0.98367 0.32041,0.25433 0.8984,0.0387 1.31437,0.0777 3.41925,-0.0669 6.82406,0.72812 10.24107,0.29553 0.44128,-0.0539 0.88037,-0.12563 1.31689,-0.20914 z m -12.76545,-3.25779 c 2.93053,-2.07841 5.99448,-3.95945 9.04094,-5.86105 5.73273,-3.54926 11.55222,-6.95881 17.22921,-10.59777 2.68229,-1.76405 5.34483,-3.56261 7.91744,-5.48405 0.18239,-0.13846 0.9194,-0.6556 0.26107,-0.49599 -0.64634,0.16514 -1.30154,0.28809 -1.96771,0.34124 -4.61039,0.49435 -9.30782,0.38464 -13.83287,1.51417 -4.2069,1.05946 -8.21187,3.07978 -11.36558,6.08513 -3.10195,2.91336 -5.33904,6.6244 -7.00138,10.51384 -0.64617,1.51669 -1.29906,3.03756 -1.77032,4.61945 -0.12156,0.24162 -0.05,0.50204 0.20607,0.24613 0.43973,-0.27561 0.86266,-0.57723 1.28313,-0.8811 z m -59.87328,-9.83878 c 0.932991,-0.16289 1.910372,-0.23832 2.773322,-0.65596 0.575591,-0.24635 0.348471,-0.92879 0.03806,-1.2945 -1.085688,-1.40351 -2.286756,-2.77066 -3.800334,-3.72573 -1.59591,-0.99189 -3.481958,-1.3862 -5.327806,-1.57881 -2.105303,-0.14292 -4.324875,0.22522 -6.107839,1.40611 -0.88046,0.58941 -1.671468,1.54833 -1.594165,2.66719 0.04947,1.16213 0.98364,2.0477 1.958484,2.54874 1.132876,0.58633 2.385718,0.95813 3.665275,0.99704 2.644886,0.13051 5.301839,0.0131 7.930508,-0.2999 0.155012,-0.02 0.309863,-0.0413 0.46449,-0.0642 z m 10.242436,-7.5347 c 1.261911,-1.53438 2.484789,-3.11301 3.509797,-4.81774 0.875985,-1.55752 1.611053,-3.21842 1.975483,-4.97439 0.09545,-0.55045 0.196803,-1.29065 -0.350418,-1.64357 -0.625483,-0.27698 -1.283914,0.13021 -1.804905,0.45634 -1.295745,0.9035 -2.315267,2.13708 -3.274601,3.37712 -1.815576,2.42319 -2.940656,5.27763 -3.849714,8.14278 -0.256053,0.80058 -0.358255,1.65594 -0.18401,2.48437 0.04137,0.27914 0.08274,0.55829 0.124111,0.83743 0.609894,-0.45772 1.220029,-0.91939 1.728929,-1.49244 0.734778,-0.76577 1.439758,-1.55992 2.125328,-2.3699 z m -8.391308,-1.64357 c -0.376905,-2.22256 -1.202907,-4.33771 -2.077638,-6.40509 -1.181934,-2.68692 -2.524533,-5.32425 -4.250089,-7.70688 -0.856502,-1.12097 -1.80176,-2.23761 -3.040923,-2.94783 -0.384622,-0.22898 -0.969027,-0.37072 -1.288497,0.0404 -0.561479,0.74147 -0.426268,1.74674 -0.258341,2.60209 0.499345,2.42181 1.878904,4.53169 3.262567,6.53736 2.371455,3.39004 5.109179,6.50388 7.53735,9.85067 0.18828,0.33013 0.430218,0.21617 0.322407,-0.14195 -0.03661,-0.61265 -0.118935,-1.22172 -0.206836,-1.82878 z m 4.480002,-5.24809 c 1.186679,-3.66625 2.31485,-7.3765 2.872199,-11.19863 0.223642,-1.74712 0.387642,-3.5665 -0.118661,-5.280113 -0.175323,-0.537333 -0.431216,-1.154028 -1.001967,-1.36578 -0.591369,-0.05854 -1.029098,0.460131 -1.384277,0.860874 -1.13161,1.449384 -1.805916,3.200659 -2.292037,4.958629 -0.655139,2.61732 -0.849152,5.32755 -0.900603,8.01744 -0.01462,2.40485 0.116534,4.82557 0.597767,7.18633 0.141313,0.41895 0.150014,1.02026 0.556141,1.2644 0.337149,-0.3014 0.384023,-0.83957 0.577324,-1.24687 0.381103,-1.05971 0.741504,-2.12679 1.094114,-3.19628 z m 41.55845,2.40028 c 3.12154,-0.69033 6.13138,-1.91079 8.84026,-3.61006 1.39314,-0.91289 2.79484,-1.9508 3.65091,-3.4124 0.31924,-0.4992 -0.25812,-0.94818 -0.70421,-1.04516 -1.27815,-0.34838 -2.62806,-0.17801 -3.91942,0.004 -3.15553,0.50026 -6.21992,1.5861 -8.9555,3.24211 -1.16152,0.72091 -2.3368,1.43728 -3.39055,2.31228 -0.77047,0.61441 -1.05141,1.59785 -1.32241,2.50106 0.022,0.48083 0.85191,0.27783 1.20192,0.36791 1.5374,0.0274 3.08801,-0.0658 4.599,-0.3599 z m -5.23684,-11.39611 c 0.26921,-2.07443 0.19996,-4.19676 -0.19616,-6.2505 -0.15182,-0.593665 -0.24799,-1.273735 -0.71028,-1.713805 -0.51044,-0.195163 -0.7459,0.524375 -0.97669,0.863691 -0.80271,1.583684 -1.32984,3.315344 -1.48533,5.086864 -0.25718,2.55476 -0.42242,5.12402 -0.38805,7.69262 0.0366,0.29714 -0.0695,1.35823 0.44451,0.91065 0.74488,-0.87764 1.29296,-1.90129 1.8979,-2.87632 0.65456,-1.07578 1.22724,-2.2346 1.3819,-3.49959 0.0112,-0.0711 0.0219,-0.14234 0.0322,-0.21361 z m 3.89136,3.79869 c 3.45282,-1.90704 6.71811,-4.18277 9.59972,-6.88237 1.42074,-1.37108 2.83073,-2.85094 3.5761,-4.711832 0.19469,-0.414091 0.40095,-1.020431 -0.0655,-1.338662 -0.63217,-0.362869 -1.40387,-0.195115 -2.07841,-0.05807 -2.24874,0.52933 -4.11908,1.978333 -5.80817,3.486248 -2.26686,2.06674 -4.33187,4.37155 -6.04307,6.92108 -0.63249,0.99829 -1.29366,2.03206 -1.51624,3.2105 -0.21803,0.73065 0.62013,0.3088 0.9269,0.1231 0.47489,-0.23984 0.94143,-0.49575 1.40869,-0.74999 z M 109.7959,99.846749 c -1.31269,-3.199607 -2.34197,-6.507442 -3.3057,-9.826194 -0.68434,-2.395339 -1.30566,-4.812834 -1.70721,-7.273351 -0.0235,0.05153 -0.0392,0.33519 -0.0597,0.476686 -0.16094,1.327099 -0.27286,2.66402 -0.19145,4.001512 0.16673,3.1357 0.84521,6.253602 2.05435,9.15402 0.59758,1.429303 1.38695,2.785721 2.43215,3.935418 0.48691,0.54258 0.95465,1.11516 1.53079,1.56618 0.046,-0.28952 -0.33614,-0.92423 -0.45942,-1.32929 -0.0969,-0.23544 -0.19489,-0.4704 -0.29382,-0.704981 z m -0.1371,-9.286033 c -0.43349,-2.812154 -0.99232,-5.614907 -1.84726,-8.331764 -0.20127,-0.650239 -0.49135,-1.266391 -0.76058,-1.889921 -0.0392,0.761516 -0.0154,1.524296 0.10996,2.278113 0.32974,2.513033 1.03508,4.955539 1.66173,7.405531 0.38237,1.362845 0.71225,2.745856 1.20585,4.073778 0.13762,-0.105478 -0.0355,-0.814523 -0.0489,-1.159619 -0.0955,-0.793483 -0.20542,-1.58557 -0.32075,-2.376118 z m 30.02504,-17.245367 c 5.14045,-0.968295 10.29168,-1.934867 15.33457,-3.33967 2.93965,-0.833605 5.88228,-1.868532 8.3862,-3.663336 2.29648,-1.629687 4.32792,-3.815546 5.22537,-6.529832 0.38919,-1.243524 0.54668,-2.607277 0.21846,-3.882177 -0.27791,-0.94952 -1.05988,-1.65639 -1.87709,-2.157926 -1.24045,-0.587498 -2.65831,-0.587221 -4.00207,-0.53621 -2.7395,0.143622 -5.4022,0.92726 -7.91412,1.999133 -2.63431,1.12379 -5.20517,2.437149 -7.53654,4.109574 -0.73839,0.529232 -1.41443,1.146635 -1.95929,1.876191 -2.45933,2.889622 -5.07672,5.641685 -7.75246,8.330821 -1.62371,1.664529 -3.42588,3.143021 -5.04938,4.806951 -0.16781,0.384094 0.61548,0.07384 0.83978,0.09054 2.03327,-0.342931 4.05815,-0.733918 6.08657,-1.10406 z m -11.15726,-2.699756 c 0.68367,-3.537568 1.49388,-7.048653 2.26574,-10.567479 0.84259,-4.014956 1.61889,-8.112759 1.27999,-12.234498 -0.21174,-2.457439 -0.54956,-4.929807 -1.34358,-7.274271 -0.33687,-0.897014 -0.70688,-1.863297 -1.49309,-2.462175 -0.58506,-0.437667 -1.36734,-0.132054 -1.84761,0.315511 -1.13262,1.031498 -1.78747,2.467304 -2.34658,3.865714 -0.73382,1.947493 -1.21443,3.99708 -1.33048,6.078323 -0.24125,3.585795 -0.22222,7.18725 -0.0288,10.774876 0.0913,1.771343 0.30588,3.535525 0.67686,5.27072 0.54887,2.669736 1.14898,5.33679 1.99531,7.930053 0.2258,0.593479 0.42523,1.23158 0.85364,1.713914 0.50098,0.278225 0.6311,-0.600413 0.762,-0.92281 0.23224,-0.817949 0.39219,-1.654367 0.55656,-2.487878 z m -5.6682,-2.448544 c -0.75726,-3.076672 -1.3834,-6.19965 -1.53886,-9.371508 -0.19279,-3.4905 -0.13016,-6.987804 -0.1599,-10.481944 -0.003,-0.700165 -0.005,-1.400329 -0.008,-2.100493 -1.1897,-1.184062 -2.32307,-2.427648 -3.58543,-3.536107 -1.16494,-1.025718 -2.57119,-1.838792 -4.13466,-2.024352 -1.45879,-0.206136 -3.06727,-0.171474 -4.32133,0.699024 -1.32845,0.916825 -2.38726,2.354185 -2.52391,3.999388 -0.18069,2.00094 0.66184,3.924764 1.64326,5.617656 0.79681,1.359677 1.82753,2.560746 2.7704,3.818302 3.69909,4.784447 7.56707,9.436547 11.22233,14.255009 0.32906,0.44832 0.62317,0.932121 1.02718,1.318239 0.0813,-0.372169 -0.13856,-0.930636 -0.1992,-1.36502 -0.0612,-0.276706 -0.1253,-0.552804 -0.19197,-0.828194 z m 16.69317,-5.989431 c 1.43639,-1.198481 2.94098,-2.311176 4.4209,-3.453981 2.34409,-1.921428 4.00167,-4.507783 5.63136,-7.02533 2.2271,-3.499044 4.20727,-7.215715 5.31772,-11.2314 0.50717,-1.944834 0.85867,-4.014413 0.40726,-6.005532 -0.31406,-1.496659 -1.42701,-2.842472 -2.9293,-3.246838 -1.65375,-0.451822 -3.38444,0.116795 -4.84071,0.905076 -2.66691,1.484863 -4.79994,3.76289 -6.59243,6.20032 -1.67304,2.312869 -3.02094,4.845897 -4.19409,7.443492 -1.39082,3.105929 -2.29148,6.439526 -2.52686,9.839587 -0.35679,3.684292 -0.95411,7.346452 -1.7811,10.954321 -0.21301,0.925628 -0.46949,1.844446 -0.7547,2.747887 0.43053,-0.197772 0.76419,-0.583322 1.13273,-0.883459 1.71086,-1.564573 3.33365,-3.222838 5.05511,-4.776406 0.54452,-0.496817 1.08951,-0.993681 1.65411,-1.467737 z"
       id="path860"
       inkscape:export-filename="/Users/ksergi/Desktop/monoflower1.png"
       inkscape:export-xdpi="96"
       inkscape:export-ydpi="96" />
  </g>
</svg>
